<svg width="24" height="24" viewBox="0 0 24 24" fill="none" xmlns="http://www.w3.org/2000/svg">
<path d="M3.5226 6.61358C4.79032 6.61358 5.81802 5.58589 5.81802 4.31816C5.81802 3.05043 4.79032 2.02274 3.5226 2.02274C2.25487 2.02274 1.22717 3.05043 1.22717 4.31816C1.22717 5.58589 2.25487 6.61358 3.5226 6.61358Z" stroke="#232324"/>
<path d="M3.5226 22.7728C4.79032 22.7728 5.81802 21.7451 5.81802 20.4774C5.81802 19.2096 4.79032 18.1819 3.5226 18.1819C2.25487 18.1819 1.22717 19.2096 1.22717 20.4774C1.22717 21.7451 2.25487 22.7728 3.5226 22.7728Z" stroke="#232324"/>
<path d="M20.4774 6.61358C21.7451 6.61358 22.7728 5.58589 22.7728 4.31816C22.7728 3.05043 21.7451 2.02274 20.4774 2.02274C19.2096 2.02274 18.1819 3.05043 18.1819 4.31816C18.1819 5.58589 19.2096 6.61358 20.4774 6.61358Z" stroke="#232324"/>
<path d="M20.4774 22.7728C21.7451 22.7728 22.7728 21.7451 22.7728 20.4774C22.7728 19.2096 21.7451 18.1819 20.4774 18.1819C19.2096 18.1819 18.1819 19.2096 18.1819 20.4774C18.1819 21.7451 19.2096 22.7728 20.4774 22.7728Z" stroke="#232324"/>
<path d="M20.4774 6.61359V16.2518" stroke="#232324"/>
<path d="M3.52258 8.54373V18.1819" stroke="#232324"/>
<path d="M16.2518 4.31815L5.81805 4.31815" stroke="#232324"/>
<path d="M18.1819 20.4774L7.7482 20.4774" stroke="#232324"/>
</svg>
