<svg width="24" height="24" viewBox="0 0 24 24" fill="none" xmlns="http://www.w3.org/2000/svg">
<path d="M6.40983 19.3786C6.37808 18.2632 5.44811 17.3847 4.33268 17.4164C3.21726 17.4482 2.33878 18.3782 2.37054 19.4936C2.4023 20.609 3.33227 21.4875 4.44769 21.4557C5.56311 21.424 6.44159 20.494 6.40983 19.3786Z" stroke="#232324"/>
<path d="M10.0783 12.1406C10.0465 11.0252 9.11656 10.1467 8.00114 10.1784C6.88572 10.2102 6.00724 11.1402 6.039 12.2556C6.07075 13.371 7.00072 14.2495 8.11614 14.2177C9.23157 14.186 10.11 13.256 10.0783 12.1406Z" stroke="#232324"/>
<path d="M17.961 11.7444C17.9292 10.629 16.9993 9.7505 15.8838 9.78226C14.7684 9.81402 13.8899 10.744 13.9217 11.8594C13.9534 12.9748 14.8834 13.8533 15.9988 13.8216C17.1143 13.7898 17.9927 12.8598 17.961 11.7444Z" stroke="#232324"/>
<path d="M21.6294 4.5064C21.5977 3.39098 20.6677 2.5125 19.5523 2.54425C18.4369 2.57601 17.5584 3.50598 17.5901 4.6214C17.6219 5.73683 18.5519 6.61531 19.6673 6.58355C20.7827 6.55179 21.6612 5.62182 21.6294 4.5064Z" stroke="#232324"/>
<path d="M5.14215 17.8122L7.14867 13.866" stroke="#232324"/>
<path d="M17.0152 10.1209L19.0217 6.17474" stroke="#232324"/>
<path d="M10.0916 11.9933H13.8371" stroke="#232324"/>
</svg>
