<svg width="24" height="24" viewBox="0 0 24 24" fill="none" xmlns="http://www.w3.org/2000/svg">
<path d="M12 19.125C15.935 19.125 19.125 15.935 19.125 12C19.125 8.06497 15.935 4.875 12 4.875C8.06497 4.875 4.875 8.06497 4.875 12C4.875 15.935 8.06497 19.125 12 19.125Z" stroke="#232324"/>
<path d="M12 14.75C13.5188 14.75 14.75 13.5188 14.75 12C14.75 10.4812 13.5188 9.25 12 9.25C10.4812 9.25 9.25 10.4812 9.25 12C9.25 13.5188 10.4812 14.75 12 14.75Z" stroke="#232324"/>
<path d="M12 1.84375V6.90625" stroke="#232324"/>
<path d="M12 17.0938V22.1562" stroke="#232324"/>
<path d="M6.90625 12.005H1.84375" stroke="#232324"/>
<path d="M22.1562 12.005H17.0938" stroke="#232324"/>
</svg>
