<svg width="24" height="24" viewBox="0 0 24 24" fill="none" xmlns="http://www.w3.org/2000/svg">
<path d="M8.14213 19.5065C8.14213 17.9149 6.85184 16.6246 5.2602 16.6246C3.66855 16.6246 2.37827 17.9149 2.37827 19.5065C2.37827 21.0981 3.66855 22.3884 5.2602 22.3884C6.85184 22.3884 8.14213 21.0981 8.14213 19.5065Z" stroke="#232324"/>
<path d="M8.14209 5.28909C8.14209 3.69744 6.85181 2.40716 5.26016 2.40716C3.66852 2.40716 2.37823 3.69744 2.37823 5.28909C2.37823 6.88074 3.66852 8.17102 5.26016 8.17102C6.85181 8.17102 8.1421 6.88074 8.14209 5.28909Z" stroke="#232324"/>
<path d="M21.6217 5.28909C21.6217 3.69744 20.3315 2.40716 18.7398 2.40716C17.1482 2.40716 15.8579 3.69744 15.8579 5.28909C15.8579 6.88074 17.1482 8.17102 18.7398 8.17102C20.3315 8.17102 21.6217 6.88074 21.6217 5.28909Z" stroke="#232324"/>
<path d="M12 19.6019L18.7398 19.6019L18.7398 8.17102" stroke="#232324"/>
<path d="M8.14213 19.6019L12 19.6019L12 14.2675L12 11.4919L12 5.28909L8.14212 5.28909" stroke="#232324"/>
</svg>
